<?xml version="1.0" encoding="UTF-8"?>
<svg width="1218px" height="1218px" viewBox="0 0 1218 1218" version="1.1" xmlns="http://www.w3.org/2000/svg" xmlns:xlink="http://www.w3.org/1999/xlink">
    <!-- Generator: Sketch 47.1 (45422) - http://www.bohemiancoding.com/sketch -->
    <title>Path</title>
    <desc>Created with Sketch.</desc>
    <defs>
        <rect id="path-1" x="0" y="0" width="1218" height="1218"></rect>
    </defs>
    <g id="Page-1" stroke="none" stroke-width="1" fill="none" fill-rule="evenodd">
        <g id="Path">
            <mask id="mask-2" fill="white">
                <use xlink:href="#path-1"></use>
            </mask>
            <g id="Mask"></g>
            <text id="const-{-controlledPo" mask="url(#mask-2)" font-family="HelveticaNeue-Bold, Helvetica Neue" font-size="18" font-weight="bold" fill="#555555">
                <tspan x="54" y="52">const { controlledPosition, title, children } = this.state;</tspan>
                <tspan x="54" y="74">    const backgroundImage = (</tspan>
                <tspan x="54" y="96">      &lt;Square</tspan>
                <tspan x="54" y="118">        position={controlledPosition}</tspan>
                <tspan x="54" y="140">        hidden={this.state.minimized}</tspan>
                <tspan x="54" y="162">      &gt;</tspan>
                <tspan x="54" y="184">        &lt;ScaledImage src={inside}/&gt;</tspan>
                <tspan x="54" y="206">      &lt;/Square&gt;</tspan>
                <tspan x="54" y="228">    )</tspan>
                <tspan x="54" y="250"></tspan>
                <tspan x="54" y="272">    const titleBar = (</tspan>
                <tspan x="54" y="294">      &lt;Bar&gt;</tspan>
                <tspan x="54" y="316">        &lt;BarText&gt;{title}&lt;/BarText&gt;</tspan>
                <tspan x="54" y="338">        &lt;ActionButton onMouseDown={(e) =&gt; </tspan>
                <tspan x="54" y="360">this.changeView(e)}&gt;</tspan>
                <tspan x="54" y="382">          {this.state.minimized ? "+" : "-"}</tspan>
                <tspan x="54" y="404">        &lt;/ActionButton&gt;</tspan>
                <tspan x="54" y="426">      &lt;/Bar&gt;</tspan>
                <tspan x="54" y="448">    )</tspan>
                <tspan x="54" y="470"></tspan>
                <tspan x="54" y="492">    return (</tspan>
                <tspan x="54" y="514">      &lt;div onTouchMove={(e) =&gt; e.preventDefault()}&gt;</tspan>
                <tspan x="54" y="536">        {this.props.hiddenImage? backgroundImage : null}</tspan>
                <tspan x="54" y="558">        &lt;Draggable</tspan>
                <tspan x="54" y="580">          position={controlledPosition}</tspan>
                <tspan x="54" y="602">          onStart={(e, position) =&gt; this.onStart(e, position)}</tspan>
                <tspan x="54" y="624">          onStop={(e, position) =&gt; this.onStop(e, position)}</tspan>
                <tspan x="54" y="646">        &gt;</tspan>
                <tspan x="54" y="668">          &lt;Box dragging={this.state.dragging}&gt;</tspan>
                <tspan x="54" y="690">            {titleBar}</tspan>
                <tspan x="54" y="712">            &lt;Content hidden={this.state.minimized}&gt;</tspan>
                <tspan x="54" y="734">              {children}</tspan>
                <tspan x="54" y="756">            &lt;/Content&gt;</tspan>
                <tspan x="54" y="778">          &lt;/Box&gt;</tspan>
                <tspan x="54" y="800">        &lt;/Draggable&gt;</tspan>
                <tspan x="54" y="822">      &lt;/div&gt;</tspan>
                <tspan x="54" y="844">    );</tspan>
            </text>
            <path d="M-126,602.339809 C-122.590564,581.132945 -120.885846,570.529513 -120.885846,570.529513 C-120.885846,570.529513 -118.043814,522.192731 -112.904276,506.618509 C-111.575415,502.591691 -107.214036,513.00353 -103.757115,515.459306 C-95.9115499,521.032749 -86.9928701,524.986498 -79.1659124,530.586041 C-72.9104082,535.061339 -69.25542,546.653985 -61.6375004,545.592419 C-55.7586595,544.773196 -59.729813,533.818968 -59.7719609,527.883471 C-59.8451159,517.581387 -60.7067098,507.278655 -61.9821602,497.055568 C-62.2683037,494.762049 -64.225268,492.869637 -64.4276034,490.56721 C-65.4123026,479.362065 -76.6539545,458.413752 -65.5162907,456.839788 C-55.1761954,455.378537 -6.63465353,507.898371 2.56769432,512.609025 C5.71635926,514.220816 5.03847912,505.8758 5.26479393,502.345822 C6.9014998,476.817065 -0.108372354,449.87034 8.14242962,425.656284 C10.9314414,417.471227 18.3128387,439.760511 24.5493297,445.750497 C31.6394178,452.56034 39.7262969,458.296754 47.8658378,463.809575 C51.0585839,465.971987 56.310472,471.916911 58.3697552,468.656695 C63.4708771,460.580703 61.7993742,449.838785 62.6971503,440.328943 C64.5861921,420.318956 64.0240869,382.140499 69.1636244,366.566278 C70.492486,362.53946 74.8538647,372.951299 78.3107857,375.407075 C86.1563506,380.980518 95.0750304,384.934267 102.901988,390.53381 C109.157492,395.009108 112.81248,406.601754 120.4304,405.540188 C126.309241,404.720964 122.338087,393.766737 122.29594,387.83124 C122.222785,377.529156 121.361191,367.226424 120.08574,357.003337 C119.799597,354.709817 117.842632,352.817406 117.640297,350.514979 C116.655598,339.309834 105.413946,318.361521 116.55161,316.787557 C126.891705,315.326306 175.433247,367.84614 184.635595,372.556793 C187.78426,374.168585 187.10638,365.823569 187.332694,362.293591 C188.9694,336.764834 181.959528,309.818108 190.21033,285.604053 C192.999342,277.418995 200.380739,299.708279 206.61723,305.698265 C213.707318,312.508109 221.794197,318.244523 229.933738,323.757344 C233.126484,325.919756 238.378372,331.864679 240.437656,328.604464 C245.538778,320.528472 243.867275,309.786554 244.765051,300.276712 C246.654093,280.266725 247.49251,240.687746 252.632047,225.113525 C253.960909,221.086706 258.322287,231.498546 261.779209,233.954322 C269.624773,239.527764 278.543453,243.481514 286.370411,249.081057 C292.625915,253.556354 296.280903,265.149001 303.898823,264.087435 C309.777664,263.268211 305.80651,252.313983 305.764362,246.378486 C305.691207,236.076402 304.829614,225.773671 303.554163,215.550583 C303.26802,213.257064 301.311055,211.364653 301.10872,209.062226 C300.124021,197.857081 288.882369,176.908767 300.020033,175.334804 C310.360128,173.873552 358.90167,226.393387 368.104018,231.10404 C371.252683,232.715832 370.574802,224.370815 370.801117,220.840837 C372.437823,195.312081 365.427951,168.365355 373.678753,144.151299 C376.467765,135.966242 383.849162,158.255526 390.085653,164.245512 C397.175741,171.055356 405.26262,176.79177 413.402161,182.304591 C416.594907,184.467002 421.846795,190.411926 423.906078,187.151711 C429.0072,179.075718 427.335697,168.333801 428.233474,158.823959 C430.122515,138.813971 429.56041,100.635515 434.699948,85.0612934 C436.028809,81.034475 440.390188,91.4463144 443.847109,93.9020905 C451.692674,99.475533 460.611354,103.429282 468.438311,109.028826 C474.693816,113.504123 478.348804,125.09677 485.966723,124.035203 C491.845564,123.21598 487.874411,112.261752 487.832263,106.326255 C487.759108,96.0241711 486.897514,85.7214394 485.622064,75.498352 C485.33592,73.2048329 483.378956,71.3124214 483.17662,69.0099947 C482.191921,57.8048494 470.950269,36.8565359 482.087933,35.2825727 C492.428028,33.821321 540.96957,86.3411555 550.171918,91.0518088 C553.320583,92.6636006 552.642703,84.3185843 552.869018,80.7886062 C554.505724,55.2598495 547.495851,28.3131238 555.746653,4.09906808 C558.535665,-4.08598925 565.917063,18.2032949 572.153553,24.1932808 C579.243642,31.0031244 587.330521,36.7395387 595.470062,42.2523595 C598.662808,44.4147709 603.914696,50.3596949 605.973979,47.0994797 C611.075101,39.0234873 609.403598,28.2815697 610.301374,18.7717276 C612.190416,-1.23825997 611.628311,-39.4167163 616.767848,-54.9909377 C618.09671,-59.0177561 622.458088,-48.6059167 625.91501,-46.1501406 C633.760574,-40.5766982 642.679254,-36.6229487 650.506212,-31.0234055 C656.761716,-26.5481078 660.416704,-14.9554615 668.034624,-16.0170278 C673.913465,-16.8362513 669.942311,-27.7904792 669.900163,-33.7259759 C669.827008,-44.02806 668.965415,-54.3307918 667.689964,-64.5538791 C667.403821,-66.8473983 665.446856,-68.7398098 665.244521,-71.0422364 C664.259822,-82.2473818 653.01817,-103.195695 664.155834,-104.769658 C674.495929,-106.23091 723.037471,-53.7110757 732.239819,-49.0004224 C735.388484,-47.3886306 734.710603,-55.7336469 734.936918,-59.2636249 C736.573624,-84.7923817 729.563752,-111.739107 737.814554,-135.953163 C740.603566,-144.13822 747.984963,-121.848936 754.221454,-115.85895 C761.311542,-109.049107 769.398421,-103.312692 777.537962,-97.7998717 C780.730708,-95.6374602 785.982596,-89.6925363 788.041879,-92.9527515 C793.143001,-101.028744 791.471498,-111.770661 792.369275,-121.280504 C794.258316,-141.290491 793.696211,-179.468947 798.835749,-195.043169 C800.16461,-199.069987 804.525989,-188.658148 807.98291,-186.202372 C815.828475,-180.628929 824.747155,-176.67518 832.574112,-171.075637 C838.829617,-166.600339 842.484605,-155.007693 850.102524,-156.069259 C855.981365,-156.888482 852.010212,-167.84271 851.968064,-173.778207 C851.894909,-184.080291 851.033315,-194.383023 849.757865,-204.60611 C849.471721,-206.899629 847.514757,-208.792041 847.312421,-211.094468 C846.327722,-222.299613 835.08607,-243.247926 846.223734,-244.82189 C856.563829,-246.283141 905.105371,-193.763307 914.307719,-189.052654 C917.456384,-187.440862 916.778504,-195.785878 917.004819,-199.315856 C918.641525,-224.844613 911.631652,-251.791339 919.882454,-276.005394 C922.671466,-284.190452 930.052864,-261.901167 936.289354,-255.911182 C943.379443,-249.101338 951.466322,-243.364924 959.605863,-237.852103 C962.798609,-235.689691 968.050497,-229.744767 970.10978,-233.004983 C975.210902,-241.080975 973.539399,-251.822893 974.437175,-261.332735 C976.326217,-281.342722 977.164634,-320.921701 982.304171,-336.495922 C983.633033,-340.522741 987.994412,-330.110901 991.451333,-327.655125 C999.296898,-322.081683 1008.21558,-318.127933 1016.04254,-312.52839 C1022.29804,-308.053092 1025.95303,-296.460446 1033.57095,-297.522012 C1039.44979,-298.341236 1035.47863,-309.295464 1035.43649,-315.230961 C1035.36333,-325.533045 1034.50174,-335.835776 1033.22629,-346.058864 C1032.94014,-348.352383 1030.98318,-350.244794 1030.78084,-352.547221 C1029.79614,-363.752366 1018.55449,-384.70068 1029.69216,-386.274643 C1040.03225,-387.735895 1088.57379,-335.21606 1097.77614,-330.505407 C1100.92481,-328.893615 1100.24693,-337.238631 1100.47324,-340.76861 C1102.10995,-366.297366 1095.10008,-393.244092 1103.35088,-417.458148 C1106.13989,-425.643205 1113.52129,-403.353921 1119.75778,-397.363935 C1126.84787,-390.554091 1134.93474,-384.817677 1143.07429,-379.304856 C1146.26703,-377.142445 1151.51892,-371.197521 1153.5782,-374.457736 C1158.67932,-382.533728 1157.00782,-393.275646 1157.9056,-402.785488 C1159.79464,-422.795476 1159.23253,-460.973932 1164.37207,-476.548153 C1165.70093,-480.574972 1170.06231,-470.163132 1173.51923,-467.707356 C1181.3648,-462.133914 1190.28348,-458.180164 1198.11044,-452.580621 C1204.36594,-448.105324 1208.02093,-436.512677 1215.63885,-437.574244 C1221.51769,-438.393467 1217.54654,-449.347695 1217.50439,-455.283192 C1217.43123,-465.585276 1216.56964,-475.888008 1215.29419,-486.111095 C1215.00804,-488.404614 1213.05108,-490.297026 1212.84874,-492.599452 C1211.86405,-503.804598 1200.62239,-524.752911 1211.76006,-526.326874 C1222.10015,-527.788126 1270.64169,-475.268291 1279.84404,-470.557638 C1282.99271,-468.945846 1282.31483,-477.290863 1282.54114,-480.820841 C1284.17785,-506.349597 1277.16798,-533.296323 1285.41878,-557.510379 C1288.20779,-565.695436 1295.58919,-543.406152 1301.82568,-537.416166 C1308.91577,-530.606323 1317.00264,-524.869908 1325.14219,-519.357087 C1328.33493,-517.194676 1333.58682,-511.249752 1335.6461,-514.509967 C1340.74723,-522.58596 1339.07572,-533.327877 1339.9735,-542.837719 C1341.86254,-562.847707 1342.65783,-582.945906 1344,-603" stroke="#F05F5C" stroke-width="20" mask="url(#mask-2)"></path>
            <path d="M-56.7554406,1068.91826 C-53.3460045,1047.71139 -51.6412864,1037.10796 -51.6412864,1037.10796 C-51.6412864,1037.10796 -48.7992542,988.771177 -43.6597167,973.196956 C-42.3308551,969.170137 -37.9694764,979.581977 -34.5125554,982.037753 C-26.6669905,987.611195 -17.7483107,991.564945 -9.92135305,997.164488 C-3.66584885,1001.63979 -0.0108606308,1013.23243 7.607059,1012.17087 C13.4858999,1011.35164 9.5147464,1000.39741 9.47259849,994.461917 C9.39944347,984.159833 8.53784964,973.857102 7.26239922,963.634014 C6.97625572,961.340495 5.01929137,959.448084 4.81695596,957.145657 C3.83225675,945.940512 -7.40939511,924.992198 3.7282687,923.418235 C14.068364,921.956983 62.6099059,974.476818 71.8122537,979.187471 C74.9609187,980.799263 74.2830385,972.454247 74.5093533,968.924268 C76.1460592,943.395512 69.136187,916.448786 77.386989,892.23473 C80.1760008,884.049673 87.5573981,906.338957 93.7938891,912.328943 C100.883977,919.138787 108.970856,924.875201 117.110397,930.388022 C120.303143,932.550433 125.555031,938.495357 127.614315,935.235142 C132.715437,927.15915 131.043934,916.417232 131.94171,906.90739 C133.830751,886.897402 133.268646,848.718946 138.408184,833.144725 C139.737045,829.117906 144.098424,839.529746 147.555345,841.985522 C155.40091,847.558964 164.31959,851.512714 172.146547,857.112257 C178.402052,861.587554 182.05704,873.180201 189.674959,872.118634 C195.5538,871.299411 191.582647,860.345183 191.540499,854.409686 C191.467344,844.107602 190.60575,833.80487 189.3303,823.581783 C189.044156,821.288264 187.087192,819.395853 186.884856,817.093426 C185.900157,805.88828 174.658505,784.939967 185.796169,783.366004 C196.136264,781.904752 244.677806,834.424587 253.880154,839.13524 C257.028819,840.747032 256.350939,832.402015 256.577254,828.872037 C258.21396,803.343281 251.204088,776.396555 259.45489,752.182499 C262.243901,743.997442 269.625299,766.286726 275.86179,772.276712 C282.951878,779.086556 291.038757,784.82297 299.178298,790.335791 C302.371044,792.498202 307.622932,798.443126 309.682215,795.182911 C314.783337,787.106918 313.111834,776.365001 314.00961,766.855159 C315.898652,746.845171 316.737069,707.266193 321.876607,691.691971 C323.205468,687.665153 327.566847,698.076992 331.023768,700.532768 C338.869333,706.106211 347.788013,710.05996 355.61497,715.659503 C361.870474,720.134801 365.525463,731.727447 373.143382,730.665881 C379.022223,729.846657 375.05107,718.89243 375.008922,712.956933 C374.935767,702.654849 374.074173,692.352117 372.798723,682.12903 C372.512579,679.835511 370.555615,677.943099 370.353279,675.640672 C369.36858,664.435527 358.126928,643.487214 369.264592,641.91325 C379.604687,640.451999 428.146229,692.971833 437.348577,697.682486 C440.497242,699.294278 439.819362,690.949262 440.045677,687.419284 C441.682382,661.890527 434.67251,634.943801 442.923312,610.729746 C445.712324,602.544688 453.093721,624.833973 459.330212,630.823958 C466.4203,637.633802 474.50718,643.370216 482.646721,648.883037 C485.839467,651.045449 491.091355,656.990373 493.150638,653.730157 C498.25176,645.654165 496.580257,634.912247 497.478033,625.402405 C499.367075,605.392418 498.80497,567.213961 503.944507,551.63974 C505.273369,547.612922 509.634747,558.024761 513.091668,560.480537 C520.937233,566.053979 529.855913,570.007729 537.682871,575.607272 C543.938375,580.08257 547.593363,591.675216 555.211283,590.61365 C561.090124,589.794426 557.11897,578.840198 557.076822,572.904702 C557.003667,562.602618 556.142073,552.299886 554.866623,542.076799 C554.58048,539.783279 552.623515,537.890868 552.42118,535.588441 C551.436481,524.383296 540.194829,503.434982 551.332492,501.861019 C561.672588,500.399767 610.21413,552.919602 619.416478,557.630255 C622.565142,559.242047 621.887262,550.897031 622.113577,547.367053 C623.750283,521.838296 616.740411,494.89157 624.991213,470.677515 C627.780225,462.492457 635.161622,484.781741 641.398113,490.771727 C648.488201,497.581571 656.57508,503.317985 664.714621,508.830806 C667.907367,510.993217 673.159255,516.938141 675.218538,513.677926 C680.31966,505.601934 678.648157,494.860016 679.545933,485.350174 C681.434975,465.340187 680.87287,427.16173 686.012408,411.587509 C687.341269,407.56069 691.702648,417.97253 695.159569,420.428306 C703.005134,426.001748 711.923814,429.955498 719.750771,435.555041 C726.006275,440.030339 729.661264,451.622985 737.279183,450.561419 C743.158024,449.742195 739.186871,438.787967 739.144723,432.852471 C739.071568,422.550386 738.209974,412.247655 736.934523,402.024567 C736.64838,399.731048 734.691416,397.838637 734.48908,395.53621 C733.504381,384.331065 722.262729,363.382751 733.400393,361.808788 C743.740488,360.347536 792.28203,412.867371 801.484378,417.578024 C804.633043,419.189816 803.955163,410.8448 804.181478,407.314822 C805.818183,381.786065 798.808311,354.839339 807.059113,330.625283 C809.848125,322.440226 817.229522,344.72951 823.466013,350.719496 C830.556101,357.52934 838.642981,363.265754 846.782522,368.778575 C849.975268,370.940986 855.227156,376.88591 857.286439,373.625695 C862.387561,365.549703 860.716058,354.807785 861.613834,345.297943 C863.502876,325.287955 862.940771,287.109499 868.080308,271.535278 C869.40917,267.508459 873.770548,277.920299 877.227469,280.376075 C885.073034,285.949517 893.991714,289.903267 901.818672,295.50281 C908.074176,299.978108 911.729164,311.570754 919.347084,310.509188 C925.225925,309.689964 921.254771,298.735736 921.212623,292.800239 C921.139468,282.498155 920.277874,272.195424 919.002424,261.972336 C918.71628,259.678817 916.759316,257.786406 916.556981,255.483979 C915.572282,244.278834 904.33063,223.33052 915.468293,221.756557 C925.808389,220.295305 974.349931,272.81514 983.552278,277.525793 C986.700943,279.137585 986.023063,270.792569 986.249378,267.26259 C987.886084,241.733834 980.876212,214.787108 989.127014,190.573052 C991.916026,182.387995 999.297423,204.677279 1005.53391,210.667265 C1012.624,217.477109 1020.71088,223.213523 1028.85042,228.726344 C1032.04317,230.888755 1037.29506,236.833679 1039.35434,233.573464 C1044.45546,225.497471 1042.78396,214.755554 1043.68173,205.245712 C1045.57078,185.235724 1046.40919,145.656746 1051.54873,130.082524 C1052.87759,126.055706 1057.23897,136.467545 1060.69589,138.923321 C1068.54146,144.496764 1077.46014,148.450513 1085.28709,154.050056 C1091.5426,158.525354 1095.19759,170.118 1102.81551,169.056434 C1108.69435,168.237211 1104.72319,157.282983 1104.68105,151.347486 C1104.60789,141.045402 1103.7463,130.74267 1102.47085,120.519583 C1102.1847,118.226064 1100.22774,116.333652 1100.0254,114.031225 C1099.0407,102.82608 1087.79905,81.8777667 1098.93672,80.3038034 C1109.27681,78.8425517 1157.81835,131.362386 1167.0207,136.07304 C1170.16937,137.684831 1169.49149,129.339815 1169.7178,125.809837 C1171.35451,100.28108 1164.34463,73.3343545 1172.59544,49.1202988 C1175.38445,40.9352415 1182.76585,63.2245256 1189.00234,69.2145115 C1196.09242,76.0243551 1204.1793,81.7607695 1212.31884,87.2735902 C1215.51159,89.4360017 1220.76348,95.3809256 1222.82276,92.1207104 C1227.92388,84.044718 1226.25238,73.3028004 1227.15016,63.7929584 C1229.0392,43.7829708 1228.47709,5.60451445 1233.61663,-9.96970698 C1234.94549,-13.9965254 1239.30687,-3.58468597 1242.76379,-1.12890989 C1250.60936,4.44453259 1259.52804,8.39828208 1267.355,13.9978252 C1273.6105,18.473123 1277.26549,30.0657692 1284.88341,29.004203 C1290.76225,28.1849794 1286.79109,17.2307516 1286.74895,11.2952548 C1286.67579,0.993170725 1285.8142,-9.30956104 1284.53875,-19.5326484 C1284.2526,-21.8261675 1282.29564,-23.718579 1282.0933,-26.0210057 C1281.1086,-37.226151 1269.86695,-58.1744645 1281.00462,-59.7484277 C1291.34471,-61.2096794 1339.88625,-8.6898449 1349.0886,-3.97919162 C1352.23727,-2.36739982 1351.55939,-10.7124161 1351.7857,-14.2423942 C1353.42241,-39.7711509 1346.41254,-66.7178766 1354.66334,-90.9319323 C1357.45235,-99.1169897 1364.83375,-76.8277055 1371.07024,-70.8377196 C1378.16033,-64.027876 1386.2472,-58.2914617 1394.38675,-52.7786409 C1397.57949,-50.6162295 1402.83138,-44.6713055 1404.89066,-47.9315207 C1409.99178,-56.0075131 1408.32028,-66.7494307 1409.21806,-76.2592728 C1411.1071,-96.2692604 1411.90239,-116.36746 1413.24456,-136.421553" stroke="#F05F5C" stroke-width="20" mask="url(#mask-2)" transform="translate(678.244559, 466.248351) rotate(17.000000) translate(-678.244559, -466.248351) "></path>
            <path d="M-82,1446.33981 C-78.5905639,1425.13294 -76.8858458,1414.52951 -76.8858458,1414.52951 C-76.8858458,1414.52951 -74.0438136,1366.19273 -68.9042761,1350.61851 C-67.5754145,1346.59169 -63.2140358,1357.00353 -59.7571148,1359.45931 C-51.9115499,1365.03275 -42.9928701,1368.9865 -35.1659124,1374.58604 C-28.9104082,1379.06134 -25.25542,1390.65399 -17.6375004,1389.59242 C-11.7586595,1388.7732 -15.729813,1377.81897 -15.7719609,1371.88347 C-15.8451159,1361.58139 -16.7067098,1351.27866 -17.9821602,1341.05557 C-18.2683037,1338.76205 -20.225268,1336.86964 -20.4276034,1334.56721 C-21.4123026,1323.36207 -32.6539545,1302.41375 -21.5162907,1300.83979 C-11.1761954,1299.37854 37.3653465,1351.89837 46.5676943,1356.60902 C49.7163593,1358.22082 49.0384791,1349.8758 49.2647939,1346.34582 C50.9014998,1320.81707 43.8916276,1293.87034 52.1424296,1269.65628 C54.9314414,1261.47123 62.3128387,1283.76051 68.5493297,1289.7505 C75.6394178,1296.56034 83.7262969,1302.29675 91.8658378,1307.80958 C95.0585839,1309.97199 100.310472,1315.91691 102.369755,1312.6567 C107.470877,1304.5807 105.799374,1293.83879 106.69715,1284.32894 C108.586192,1264.31896 108.024087,1226.1405 113.163624,1210.56628 C114.492486,1206.53946 118.853865,1216.9513 122.310786,1219.40708 C130.156351,1224.98052 139.07503,1228.93427 146.901988,1234.53381 C153.157492,1239.00911 156.81248,1250.60175 164.4304,1249.54019 C170.309241,1248.72096 166.338087,1237.76674 166.29594,1231.83124 C166.222785,1221.52916 165.361191,1211.22642 164.08574,1201.00334 C163.799597,1198.70982 161.842632,1196.81741 161.640297,1194.51498 C160.655598,1183.30983 149.413946,1162.36152 160.55161,1160.78756 C170.891705,1159.32631 219.433247,1211.84614 228.635595,1216.55679 C231.78426,1218.16859 231.10638,1209.82357 231.332694,1206.29359 C232.9694,1180.76483 225.959528,1153.81811 234.21033,1129.60405 C236.999342,1121.419 244.380739,1143.70828 250.61723,1149.69827 C257.707318,1156.50811 265.794197,1162.24452 273.933738,1167.75734 C277.126484,1169.91976 282.378372,1175.86468 284.437656,1172.60446 C289.538778,1164.52847 287.867275,1153.78655 288.765051,1144.27671 C290.654093,1124.26672 291.49251,1084.68775 296.632047,1069.11352 C297.960909,1065.08671 302.322287,1075.49855 305.779209,1077.95432 C313.624773,1083.52776 322.543453,1087.48151 330.370411,1093.08106 C336.625915,1097.55635 340.280903,1109.149 347.898823,1108.08743 C353.777664,1107.26821 349.80651,1096.31398 349.764362,1090.37849 C349.691207,1080.0764 348.829614,1069.77367 347.554163,1059.55058 C347.26802,1057.25706 345.311055,1055.36465 345.10872,1053.06223 C344.124021,1041.85708 332.882369,1020.90877 344.020033,1019.3348 C354.360128,1017.87355 402.90167,1070.39339 412.104018,1075.10404 C415.252683,1076.71583 414.574802,1068.37082 414.801117,1064.84084 C416.437823,1039.31208 409.427951,1012.36535 417.678753,988.151299 C420.467765,979.966242 427.849162,1002.25553 434.085653,1008.24551 C441.175741,1015.05536 449.26262,1020.79177 457.402161,1026.30459 C460.594907,1028.467 465.846795,1034.41193 467.906078,1031.15171 C473.0072,1023.07572 471.335697,1012.3338 472.233474,1002.82396 C474.122515,982.813971 473.56041,944.635515 478.699948,929.061293 C480.028809,925.034475 484.390188,935.446314 487.847109,937.902091 C495.692674,943.475533 504.611354,947.429282 512.438311,953.028826 C518.693816,957.504123 522.348804,969.09677 529.966723,968.035203 C535.845564,967.21598 531.874411,956.261752 531.832263,950.326255 C531.759108,940.024171 530.897514,929.721439 529.622064,919.498352 C529.33592,917.204833 527.378956,915.312421 527.17662,913.009995 C526.191921,901.804849 514.950269,880.856536 526.087933,879.282573 C536.428028,877.821321 584.96957,930.341155 594.171918,935.051809 C597.320583,936.663601 596.642703,928.318584 596.869018,924.788606 C598.505724,899.259849 591.495851,872.313124 599.746653,848.099068 C602.535665,839.914011 609.917063,862.203295 616.153553,868.193281 C623.243642,875.003124 631.330521,880.739539 639.470062,886.252359 C642.662808,888.414771 647.914696,894.359695 649.973979,891.09948 C655.075101,883.023487 653.403598,872.28157 654.301374,862.771728 C656.190416,842.76174 655.628311,804.583284 660.767848,789.009062 C662.09671,784.982244 666.458088,795.394083 669.91501,797.849859 C677.760574,803.423302 686.679254,807.377051 694.506212,812.976594 C700.761716,817.451892 704.416704,829.044538 712.034624,827.982972 C717.913465,827.163749 713.942311,816.209521 713.900163,810.274024 C713.827008,799.97194 712.965415,789.669208 711.689964,779.446121 C711.403821,777.152602 709.446856,775.26019 709.244521,772.957764 C708.259822,761.752618 697.01817,740.804305 708.155834,739.230342 C718.495929,737.76909 767.037471,790.288924 776.239819,794.999578 C779.388484,796.611369 778.710603,788.266353 778.936918,784.736375 C780.573624,759.207618 773.563752,732.260893 781.814554,708.046837 C784.603566,699.86178 791.984963,722.151064 798.221454,728.14105 C805.311542,734.950893 813.398421,740.687308 821.537962,746.200128 C824.730708,748.36254 829.982596,754.307464 832.041879,751.047249 C837.143001,742.971256 835.471498,732.229339 836.369275,722.719496 C838.258316,702.709509 837.696211,664.531053 842.835749,648.956831 C844.16461,644.930013 848.525989,655.341852 851.98291,657.797628 C859.828475,663.371071 868.747155,667.32482 876.574112,672.924363 C882.829617,677.399661 886.484605,688.992307 894.102524,687.930741 C899.981365,687.111518 896.010212,676.15729 895.968064,670.221793 C895.894909,659.919709 895.033315,649.616977 893.757865,639.39389 C893.471721,637.100371 891.514757,635.207959 891.312421,632.905532 C890.327722,621.700387 879.08607,600.752074 890.223734,599.17811 C900.563829,597.716859 949.105371,650.236693 958.307719,654.947346 C961.456384,656.559138 960.778504,648.214122 961.004819,644.684144 C962.641525,619.155387 955.631652,592.208661 963.882454,567.994606 C966.671466,559.809548 974.052864,582.098833 980.289354,588.088818 C987.379443,594.898662 995.466322,600.635076 1003.60586,606.147897 C1006.79861,608.310309 1012.0505,614.255233 1014.10978,610.995017 C1019.2109,602.919025 1017.5394,592.177107 1018.43718,582.667265 C1020.32622,562.657278 1021.16463,523.078299 1026.30417,507.504078 C1027.63303,503.477259 1031.99441,513.889099 1035.45133,516.344875 C1043.2969,521.918317 1052.21558,525.872067 1060.04254,531.47161 C1066.29804,535.946908 1069.95303,547.539554 1077.57095,546.477988 C1083.44979,545.658764 1079.47863,534.704536 1079.43649,528.769039 C1079.36333,518.466955 1078.50174,508.164224 1077.22629,497.941136 C1076.94014,495.647617 1074.98318,493.755206 1074.78084,491.452779 C1073.79614,480.247634 1062.55449,459.29932 1073.69216,457.725357 C1084.03225,456.264105 1132.57379,508.78394 1141.77614,513.494593 C1144.92481,515.106385 1144.24693,506.761369 1144.47324,503.23139 C1146.10995,477.702634 1139.10008,450.755908 1147.35088,426.541852 C1150.13989,418.356795 1157.52129,440.646079 1163.75778,446.636065 C1170.84787,453.445909 1178.93474,459.182323 1187.07429,464.695144 C1190.26703,466.857555 1195.51892,472.802479 1197.5782,469.542264 C1202.67932,461.466272 1201.00782,450.724354 1201.9056,441.214512 C1203.79464,421.204524 1203.23253,383.026068 1208.37207,367.451847 C1209.70093,363.425028 1214.06231,373.836868 1217.51923,376.292644 C1225.3648,381.866086 1234.28348,385.819836 1242.11044,391.419379 C1248.36594,395.894676 1252.02093,407.487323 1259.63885,406.425756 C1265.51769,405.606533 1261.54654,394.652305 1261.50439,388.716808 C1261.43123,378.414724 1260.56964,368.111992 1259.29419,357.888905 C1259.00804,355.595386 1257.05108,353.702974 1256.84874,351.400548 C1255.86405,340.195402 1244.62239,319.247089 1255.76006,317.673126 C1266.10015,316.211874 1314.64169,368.731709 1323.84404,373.442362 C1326.99271,375.054154 1326.31483,366.709137 1326.54114,363.179159 C1328.17785,337.650403 1321.16798,310.703677 1329.41878,286.489621 C1332.20779,278.304564 1339.58919,300.593848 1345.82568,306.583834 C1352.91577,313.393677 1361.00264,319.130092 1369.14219,324.642913 C1372.33493,326.805324 1377.58682,332.750248 1379.6461,329.490033 C1384.74723,321.41404 1383.07572,310.672123 1383.9735,301.162281 C1385.86254,281.152293 1386.65783,261.054094 1388,241" stroke="#F05F5C" stroke-width="20" mask="url(#mask-2)"></path>
            <path d="M483,1595.33981 C486.409436,1574.13294 488.114154,1563.52951 488.114154,1563.52951 C488.114154,1563.52951 490.956186,1515.19273 496.095724,1499.61851 C497.424585,1495.59169 501.785964,1506.00353 505.242885,1508.45931 C513.08845,1514.03275 522.00713,1517.9865 529.834088,1523.58604 C536.089592,1528.06134 539.74458,1539.65399 547.3625,1538.59242 C553.241341,1537.7732 549.270187,1526.81897 549.228039,1520.88347 C549.154884,1510.58139 548.29329,1500.27866 547.01784,1490.05557 C546.731696,1487.76205 544.774732,1485.86964 544.572397,1483.56721 C543.587697,1472.36207 532.346045,1451.41375 543.483709,1449.83979 C553.823805,1448.37854 602.365346,1500.89837 611.567694,1505.60902 C614.716359,1507.22082 614.038479,1498.8758 614.264794,1495.34582 C615.9015,1469.81707 608.891628,1442.87034 617.14243,1418.65628 C619.931441,1410.47123 627.312839,1432.76051 633.54933,1438.7505 C640.639418,1445.56034 648.726297,1451.29675 656.865838,1456.80958 C660.058584,1458.97199 665.310472,1464.91691 667.369755,1461.6567 C672.470877,1453.5807 670.799374,1442.83879 671.69715,1433.32894 C673.586192,1413.31896 673.024087,1375.1405 678.163624,1359.56628 C679.492486,1355.53946 683.853865,1365.9513 687.310786,1368.40708 C695.156351,1373.98052 704.07503,1377.93427 711.901988,1383.53381 C718.157492,1388.00911 721.81248,1399.60175 729.4304,1398.54019 C735.309241,1397.72096 731.338087,1386.76674 731.29594,1380.83124 C731.222785,1370.52916 730.361191,1360.22642 729.08574,1350.00334 C728.799597,1347.70982 726.842632,1345.81741 726.640297,1343.51498 C725.655598,1332.30983 714.413946,1311.36152 725.55161,1309.78756 C735.891705,1308.32631 784.433247,1360.84614 793.635595,1365.55679 C796.78426,1367.16859 796.10638,1358.82357 796.332694,1355.29359 C797.9694,1329.76483 790.959528,1302.81811 799.21033,1278.60405 C801.999342,1270.419 809.380739,1292.70828 815.61723,1298.69827 C822.707318,1305.50811 830.794197,1311.24452 838.933738,1316.75734 C842.126484,1318.91976 847.378372,1324.86468 849.437656,1321.60446 C854.538778,1313.52847 852.867275,1302.78655 853.765051,1293.27671 C855.654093,1273.26672 856.49251,1233.68775 861.632047,1218.11352 C862.960909,1214.08671 867.322287,1224.49855 870.779209,1226.95432 C878.624773,1232.52776 887.543453,1236.48151 895.370411,1242.08106 C901.625915,1246.55635 905.280903,1258.149 912.898823,1257.08743 C918.777664,1256.26821 914.80651,1245.31398 914.764362,1239.37849 C914.691207,1229.0764 913.829614,1218.77367 912.554163,1208.55058 C912.26802,1206.25706 910.311055,1204.36465 910.10872,1202.06223 C909.124021,1190.85708 897.882369,1169.90877 909.020033,1168.3348 C919.360128,1166.87355 967.90167,1219.39339 977.104018,1224.10404 C980.252683,1225.71583 979.574802,1217.37082 979.801117,1213.84084 C981.437823,1188.31208 974.427951,1161.36535 982.678753,1137.1513 C985.467765,1128.96624 992.849162,1151.25553 999.085653,1157.24551 C1006.17574,1164.05536 1014.26262,1169.79177 1022.40216,1175.30459 C1025.59491,1177.467 1030.8468,1183.41193 1032.90608,1180.15171 C1038.0072,1172.07572 1036.3357,1161.3338 1037.23347,1151.82396 C1039.12252,1131.81397 1038.56041,1093.63551 1043.69995,1078.06129 C1045.02881,1074.03448 1049.39019,1084.44631 1052.84711,1086.90209 C1060.69267,1092.47553 1069.61135,1096.42928 1077.43831,1102.02883 C1083.69382,1106.50412 1087.3488,1118.09677 1094.96672,1117.0352 C1100.84556,1116.21598 1096.87441,1105.26175 1096.83226,1099.32626 C1096.75911,1089.02417 1095.89751,1078.72144 1094.62206,1068.49835 C1094.33592,1066.20483 1092.37896,1064.31242 1092.17662,1062.00999 C1091.19192,1050.80485 1079.95027,1029.85654 1091.08793,1028.28257 C1101.42803,1026.82132 1149.96957,1079.34116 1159.17192,1084.05181 C1162.32058,1085.6636 1161.6427,1077.31858 1161.86902,1073.78861 C1163.50572,1048.25985 1156.49585,1021.31312 1164.74665,997.099068 C1167.53567,988.914011 1174.91706,1011.20329 1181.15355,1017.19328 C1188.24364,1024.00312 1196.33052,1029.73954 1204.47006,1035.25236 C1207.66281,1037.41477 1212.9147,1043.35969 1214.97398,1040.09948 C1220.0751,1032.02349 1218.4036,1021.28157 1219.30137,1011.77173 C1221.19042,991.76174 1220.62831,953.583284 1225.76785,938.009062 C1227.09671,933.982244 1231.45809,944.394083 1234.91501,946.849859 C1242.76057,952.423302 1251.67925,956.377051 1259.50621,961.976594 C1265.76172,966.451892 1269.4167,978.044538 1277.03462,976.982972 C1282.91346,976.163749 1278.94231,965.209521 1278.90016,959.274024 C1278.82701,948.97194 1277.96541,938.669208 1276.68996,928.446121 C1276.40382,926.152602 1274.44686,924.26019 1274.24452,921.957764 C1273.25982,910.752618 1262.01817,889.804305 1273.15583,888.230342 C1283.49593,886.76909 1332.03747,939.288924 1341.23982,943.999578 C1344.38848,945.611369 1343.7106,937.266353 1343.93692,933.736375 C1345.57362,908.207618 1338.56375,881.260893 1346.81455,857.046837 C1349.60357,848.86178 1356.98496,871.151064 1363.22145,877.14105 C1370.31154,883.950893 1378.39842,889.687308 1386.53796,895.200128 C1389.73071,897.36254 1394.9826,903.307464 1397.04188,900.047249 C1402.143,891.971256 1400.4715,881.229339 1401.36927,871.719496 C1403.25832,851.709509 1402.69621,813.531053 1407.83575,797.956831 C1409.16461,793.930013 1413.52599,804.341852 1416.98291,806.797628 C1424.82847,812.371071 1433.74715,816.32482 1441.57411,821.924363 C1447.82962,826.399661 1451.4846,837.992307 1459.10252,836.930741 C1464.98137,836.111518 1461.01021,825.15729 1460.96806,819.221793 C1460.89491,808.919709 1460.03332,798.616977 1458.75786,788.39389 C1458.47172,786.100371 1456.51476,784.207959 1456.31242,781.905532 C1455.32772,770.700387 1444.08607,749.752074 1455.22373,748.17811 C1465.56383,746.716859 1514.10537,799.236693 1523.30772,803.947346 C1526.45638,805.559138 1525.7785,797.214122 1526.00482,793.684144 C1527.64152,768.155387 1520.63165,741.208661 1528.88245,716.994606 C1531.67147,708.809548 1539.05286,731.098833 1545.28935,737.088818 C1552.37944,743.898662 1560.46632,749.635076 1568.60586,755.147897 C1571.79861,757.310309 1577.0505,763.255233 1579.10978,759.995017 C1584.2109,751.919025 1582.5394,741.177107 1583.43718,731.667265 C1585.32622,711.657278 1586.16463,672.078299 1591.30417,656.504078 C1592.63303,652.477259 1596.99441,662.889099 1600.45133,665.344875 C1608.2969,670.918317 1617.21558,674.872067 1625.04254,680.47161 C1631.29804,684.946908 1634.95303,696.539554 1642.57095,695.477988 C1648.44979,694.658764 1644.47863,683.704536 1644.43649,677.769039 C1644.36333,667.466955 1643.50174,657.164224 1642.22629,646.941136 C1641.94014,644.647617 1639.98318,642.755206 1639.78084,640.452779 C1638.79614,629.247634 1627.55449,608.29932 1638.69216,606.725357 C1649.03225,605.264105 1697.57379,657.78394 1706.77614,662.494593 C1709.92481,664.106385 1709.24693,655.761369 1709.47324,652.23139 C1711.10995,626.702634 1704.10008,599.755908 1712.35088,575.541852 C1715.13989,567.356795 1722.52129,589.646079 1728.75778,595.636065 C1735.84787,602.445909 1743.93474,608.182323 1752.07429,613.695144 C1755.26703,615.857555 1760.51892,621.802479 1762.5782,618.542264 C1767.67932,610.466272 1766.00782,599.724354 1766.9056,590.214512 C1768.79464,570.204524 1768.23253,532.026068 1773.37207,516.451847 C1774.70093,512.425028 1779.06231,522.836868 1782.51923,525.292644 C1790.3648,530.866086 1799.28348,534.819836 1807.11044,540.419379 C1813.36594,544.894676 1817.02093,556.487323 1824.63885,555.425756 C1830.51769,554.606533 1826.54654,543.652305 1826.50439,537.716808 C1826.43123,527.414724 1825.56964,517.111992 1824.29419,506.888905 C1824.00804,504.595386 1822.05108,502.702974 1821.84874,500.400548 C1820.86405,489.195402 1809.62239,468.247089 1820.76006,466.673126 C1831.10015,465.211874 1879.64169,517.731709 1888.84404,522.442362 C1891.99271,524.054154 1891.31483,515.709137 1891.54114,512.179159 C1893.17785,486.650403 1886.16798,459.703677 1894.41878,435.489621 C1897.20779,427.304564 1904.58919,449.593848 1910.82568,455.583834 C1917.91577,462.393677 1926.00264,468.130092 1934.14219,473.642913 C1937.33493,475.805324 1942.58682,481.750248 1944.6461,478.490033 C1949.74723,470.41404 1948.07572,459.672123 1948.9735,450.162281 C1950.86254,430.152293 1951.65783,410.054094 1953,390" stroke="#F05F5C" stroke-width="20" mask="url(#mask-2)" transform="translate(1218.000000, 992.669905) rotate(16.000000) translate(-1218.000000, -992.669905) "></path>
        </g>
    </g>
</svg>